<?xml version="1.0" encoding="utf-8"?>
<!-- Generator: Adobe Illustrator 19.1.0, SVG Export Plug-In . SVG Version: 6.00 Build 0)  -->
<!DOCTYPE svg PUBLIC "-//W3C//DTD SVG 1.1//EN" "http://www.w3.org/Graphics/SVG/1.1/DTD/svg11.dtd">
<svg version="1.1" id="Layer_1" xmlns="http://www.w3.org/2000/svg" xmlns:xlink="http://www.w3.org/1999/xlink" x="0px" y="0px"
	 viewBox="0 0 203.9 245.6" enable-background="new 0 0 203.9 245.6" xml:space="preserve">
<g>
	<path d="M192.2,181.8l-0.1,0.1c-11.1,7.7-26.4,5.9-35.6-4.1c-6.8-7.4-20-16.4-44.2-17.1l-0.3,0c-2-0.1-3.9-0.4-5.8-0.8
		c1.4,4.8,3,8.9,4.7,12c8.5,15.3,18.7,53,15.3,73.8l-21.7-3.5c2.3-14-5.5-46.5-12.8-59.5c-4.5-8-10-24.9-11.7-43.1
		c-2.1-23.2,2.9-40.2,14.7-49.1l13.3,17.5c0.1-0.1,0.2-0.1,0.2-0.2c-2.5,2.8-5.6,16.4-1.9,25.7c1.8,4.5,4.3,5.3,6.8,5.4
		c31.8,1,49.9,13.7,59.6,24.2c1.8,2,4.7,2.4,6.9,0.9l0.1-0.1c2.3-1.6,2.9-4.7,1.4-7c-7.6-12-16.9-30.1-18.6-47.7
		c-2.2-23-19.5-46.2-19.7-46.4l-0.1-0.2c-7.3,0-19.2-1.4-38.2-6.9C32.2,71.6,22,199.8,21.9,201.1L0,199.5
		c0.4-6.1,11.8-149.4,103-166.1l2.6-0.5l2.5,0.8c21.5,6.4,31.8,6.9,35.4,6.7L194.7,0l-30.2,55.3c6.3,9.7,17.8,30.1,19.9,51.5
		c1,10.4,6.5,24,15.4,38.2C207.5,157.4,204.2,173.5,192.2,181.8z"/>
</g>
<g>
	<path d="M145.3,95.2c0,4.2-3,7.5-6.7,7.5s-6.7-3.4-6.7-7.5c0-4.2,3-7.5,6.7-7.5S145.3,91,145.3,95.2z"/>
</g>
</svg>
